 http://www.imdb.com/title/tt1156132/
 
http://www.moviemeter.nl/film/56502

User Rating:6.6/10 - 43 votes

Nederland
Drama
100 minuten

Geregisseerd door Steven de Jong
Met Cas Jansen, Chris Zegers en Chava Voor in 't Holt

Januari 1963. Ondanks het barre weer besluit het bestuur van het Friese Elfstedencomité, onder druk van de media, met de kleinst mogelijke 
meerderheid van stemmen, dat de Elstedentocht doorgaat. Tussen de duizenden die een startbewijs veroveren bevinden zich soldaat Henk Buma (Cas Janssen), boerenzoon Sjoerd Lelkama (Lourens van den Akker), arbeider Kees Ferwerda (Chris Zegers) en verpleegkundige Annemiek (Chava voor in 't Holt). Alle vier hebben zo hun reden om deze tocht der tochten te rijden. Door de dramatische en heroïsche gebeurtenissen zal deze Elfstedentocht, ook voor Henk, Sjoerd, Kees en Annemiek, als een van de meest legendarische de geschiedenis in gaan..

Info:

DVD Hoesje bijgesloten.

Eventuele ondertitels: Nederlandse en Engels (srt)

General
Complete name                    : De Hel van 63-AC3-5,1-DVDRip-2009.avi
Format                           : AVI
Format/Info                      : Audio Video Interleave
File size                        : 1.36 GiB
Duration                         : 1h 43mn
Overall bit rate                 : 1 877 Kbps
Writing application              : VirtualDubMod 1.5.4.1 (build 2178/release)
Writing library                  : VirtualDubMod build 2178/release

Video
ID                               : 0
Format                           : MPEG-4 Visual
Format profile                   : Simple@L3
Format settings, BVOP            : No
Format settings, QPel            : No
Format settings, GMC             : No warppoints
Format settings, Matrix          : Default (H.263)
Codec ID                         : XVID
Codec ID/Hint                    : XviD
Duration                         : 1h 43mn
Bit rate                         : 1 419 Kbps
Width                            : 640 pixels
Height                           : 352 pixels
Display aspect ratio             : 16:9
Frame rate                       : 25.000 fps
Resolution                       : 24 bits
Colorimetry                      : 4:2:0
Scan type                        : Progressive
Bits/(Pixel*Frame)               : 0.252
Stream size                      : 1.03 GiB (76%)
Writing library                  : XviD 1.1.2 (UTC 2006-11-01)

Audio
ID                               : 1
Format                           : AC-3
Format/Info                      : Audio Coding 3
Codec ID                         : 2000
Duration                         : 1h 43mn
Bit rate mode                    : Constant
Bit rate                         : 448 Kbps
Channel(s)                       : 6 channels
Channel positions                : Front: L C R, Surround: L R, LFE
Sampling rate                    : 48.0 KHz
Stream size                      : 333 MiB (24%)
Alignment                        : Split accross interleaves
Interleave, duration             : 40 ms (1.00 video frame)
Interleave, preload duration     : 500 ms

Enjoy..